<svg id="visual" viewBox="0 0 900 600" width="900" height="600" xmlns="http://www.w3.org/2000/svg" xmlns:xlink="http://www.w3.org/1999/xlink" version="1.1"><g transform="translate(902.97818905229 29.214036485562474)"><path d="M250.1 -336.4C328.6 -287.2 399.7 -220.1 422.7 -139.6C445.7 -59.1 420.7 34.7 393.7 131C366.6 227.3 337.6 326 271.7 359.3C205.7 392.5 102.9 360.3 3.8 355.1C-95.2 349.8 -190.4 371.5 -250.5 336.3C-310.6 301.2 -335.5 209.1 -369.2 117.2C-402.9 25.2 -445.4 -66.6 -436.5 -156.5C-427.5 -246.5 -367.2 -334.4 -285.9 -382.6C-204.5 -430.9 -102.3 -439.4 -8.2 -428.1C85.8 -416.8 171.6 -385.6 250.1 -336.4" fill="#E24D1D"></path></g></svg>